<svg width="85" height="96" fill="none" xmlns="http://www.w3.org/2000/svg"><path d="M43.615 15.724C27.782 24.829 14.921 47.017 14.89 65.28c-.015 8.873 3 15.188 7.92 18.292l-1.643-.952c-5.442-2.885-8.822-9.412-8.806-18.805.032-18.265 12.893-40.453 28.726-49.558 8.107-4.662 15.421-4.99 20.625-1.75l1.778 1.031c-5.145-2.765-12.15-2.258-19.874 2.185z" fill="url(#paint0_linear_2208_6998)"/><path d="M43.615 15.724C27.782 24.829 14.921 47.017 14.89 65.28c-.015 8.873 3 15.188 7.92 18.292l-1.643-.952c-5.442-2.885-8.822-9.412-8.806-18.805.032-18.265 12.893-40.453 28.726-49.558 8.107-4.662 15.421-4.99 20.625-1.75l1.778 1.031c-5.145-2.765-12.15-2.258-19.874 2.185z" fill="url(#paint1_linear_2208_6998)"/><g filter="url(#filter0_b_2208_6998)"><path d="M14.914 65.287c.032-18.264 12.893-40.452 28.726-49.557 15.833-9.106 28.642-1.68 28.61 16.583-.032 18.265-12.893 40.453-28.726 49.558-15.833 9.106-28.642 1.68-28.61-16.584z" fill="#9541FF" fill-opacity=".3"/></g><mask id="a" style="mask-type:alpha" maskUnits="userSpaceOnUse" x="14" y="11" width="59" height="75"><path d="M14.914 65.287c.032-18.264 12.893-40.452 28.726-49.557 15.833-9.106 28.642-1.68 28.61 16.583-.032 18.265-12.893 40.453-28.726 49.558-15.833 9.106-28.642 1.68-28.61-16.584z" fill="url(#paint2_linear_2208_6998)"/></mask><g filter="url(#filter1_f_2208_6998)" mask="url(#a)"><path d="M69.722 30.848C69.69 49.112 56.829 71.3 40.996 80.405c-7.69 4.423-14.666 4.946-19.805 2.222l1.638.95c5.208 3.288 12.552 2.978 20.695-1.706 15.833-9.105 28.694-31.293 28.726-49.557.017-9.352-3.333-15.861-8.731-18.766l-1.784-1.034c4.96 3.089 8.002 9.42 7.987 18.334z" fill="url(#paint3_linear_2208_6998)" fill-opacity=".4"/></g><defs><linearGradient id="paint0_linear_2208_6998" x1="65.811" y1="14.877" x2="25.186" y2="84.962" gradientUnits="userSpaceOnUse"><stop stop-color="#FFAEDA"/><stop offset=".14" stop-color="#E3E3FF"/><stop offset=".301" stop-color="#EE6ED0"/><stop offset=".59" stop-color="#FFE4B7"/><stop offset=".818" stop-color="#EE6ED0"/><stop offset="1" stop-color="#E3E3FF"/></linearGradient><linearGradient id="paint1_linear_2208_6998" x1="65.811" y1="14.877" x2="25.186" y2="84.962" gradientUnits="userSpaceOnUse"><stop stop-color="#E3E3FF"/><stop offset=".126" stop-color="#C3C0FF"/><stop offset=".313" stop-color="#FFC6AE"/><stop offset=".516" stop-color="#EDEDFF"/><stop offset=".687" stop-color="#FFB3D8"/><stop offset=".883" stop-color="#C2BFFF"/><stop offset="1" stop-color="#E3E3FF"/></linearGradient><linearGradient id="paint2_linear_2208_6998" x1="69.119" y1="63.603" x2="23.352" y2="37.074" gradientUnits="userSpaceOnUse"><stop stop-color="#8EACE7"/><stop offset="1" stop-color="#3532B0"/></linearGradient><linearGradient id="paint3_linear_2208_6998" x1="86.444" y1="26.829" x2="45.819" y2="96.914" gradientUnits="userSpaceOnUse"><stop stop-color="#E3E3FF"/><stop offset=".126" stop-color="#C3C0FF"/><stop offset=".313" stop-color="#FFC6AE"/><stop offset=".516" stop-color="#EDEDFF"/><stop offset=".687" stop-color="#FFB3D8"/><stop offset=".883" stop-color="#C2BFFF"/><stop offset="1" stop-color="#E3E3FF"/></linearGradient><filter id="filter0_b_2208_6998" x="4.577" y="1.503" width="78.01" height="94.595" filterUnits="userSpaceOnUse" color-interpolation-filters="sRGB"><feFlood flood-opacity="0" result="BackgroundImageFix"/><feGaussianBlur in="BackgroundImageFix" stdDeviation="5.168"/><feComposite in2="SourceAlpha" operator="in" result="effect1_backgroundBlur_2208_6998"/><feBlend in="SourceGraphic" in2="effect1_backgroundBlur_2208_6998" result="shape"/></filter><filter id="filter1_f_2208_6998" x="20.158" y="11.48" width="53.126" height="75.315" filterUnits="userSpaceOnUse" color-interpolation-filters="sRGB"><feFlood flood-opacity="0" result="BackgroundImageFix"/><feBlend in="SourceGraphic" in2="BackgroundImageFix" result="shape"/><feGaussianBlur stdDeviation=".517" result="effect1_foregroundBlur_2208_6998"/></filter></defs></svg>