<svg width="141" height="134" fill="none" xmlns="http://www.w3.org/2000/svg"><path d="M22.968 57.747c10 25.397 39.992 49.26 66.986 53.299 13.114 1.962 23.108-1.115 28.772-7.709l-1.766 2.22c-5.454 7.414-15.842 10.985-29.725 8.907-26.995-4.039-56.986-27.902-66.986-53.299-5.121-13.003-4.008-23.888 1.92-30.872l1.913-2.404c-5.213 7.002-5.993 17.468-1.114 29.858z" fill="url(#paint0_linear_2208_7012)"/><path d="M22.968 57.747c10 25.397 39.992 49.26 66.986 53.299 13.114 1.962 23.108-1.115 28.772-7.709l-1.766 2.22c-5.454 7.414-15.842 10.985-29.725 8.907-26.995-4.039-56.986-27.902-66.986-53.299-5.121-13.003-4.008-23.888 1.92-30.872l1.913-2.404c-5.213 7.002-5.993 17.468-1.114 29.858z" fill="url(#paint1_linear_2208_7012)"/><g filter="url(#filter0_b_2208_7012)"><path d="M89.97 111.018c-26.994-4.039-56.985-27.902-66.986-53.299-10-25.397 3.776-42.71 30.77-38.671 26.995 4.039 56.986 27.902 66.987 53.299 10 25.397-3.776 42.711-30.77 38.671z" fill="#9541FF" fill-opacity=".3"/></g><mask id="a" style="mask-type:alpha" maskUnits="userSpaceOnUse" x="20" y="16" width="106" height="96"><path d="M90.213 110.719c-27.316-3.636-57.307-27.499-66.986-53.3-9.68-25.8 4.617-43.768 31.933-40.133 27.316 3.636 57.307 27.498 66.986 53.3 9.68 25.8-4.617 43.768-31.933 40.133z" fill="url(#paint2_linear_2208_7012)"/></mask><g filter="url(#filter1_f_2208_7012)" mask="url(#a)"><path d="M52.337 20.833c27.316 3.636 57.307 27.499 66.987 53.3 4.701 12.53 3.746 23.213-1.608 30.471l1.828-2.297c6.216-7.253 7.581-18.451 2.602-31.722-9.679-25.8-39.67-49.663-66.986-53.299-13.985-1.861-24.558 1.94-30.247 9.557l-1.992 2.503c5.856-6.916 16.086-10.287 29.416-8.513z" fill="url(#paint3_linear_2208_7012)" fill-opacity=".4"/></g><defs><linearGradient id="paint0_linear_2208_7012" x1="26.568" y1="24.749" x2="121.3" y2="100.125" gradientUnits="userSpaceOnUse"><stop stop-color="#FFAEDA"/><stop offset=".14" stop-color="#E3E3FF"/><stop offset=".301" stop-color="#EE6ED0"/><stop offset=".59" stop-color="#FFE4B7"/><stop offset=".818" stop-color="#EE6ED0"/><stop offset="1" stop-color="#E3E3FF"/></linearGradient><linearGradient id="paint1_linear_2208_7012" x1="26.568" y1="24.749" x2="121.3" y2="100.125" gradientUnits="userSpaceOnUse"><stop stop-color="#E3E3FF"/><stop offset=".126" stop-color="#C3C0FF"/><stop offset=".313" stop-color="#FFC6AE"/><stop offset=".516" stop-color="#EDEDFF"/><stop offset=".687" stop-color="#FFB3D8"/><stop offset=".883" stop-color="#C2BFFF"/><stop offset="1" stop-color="#E3E3FF"/></linearGradient><linearGradient id="paint2_linear_2208_7012" x1="101.19" y1="28.18" x2="50.106" y2="92.381" gradientUnits="userSpaceOnUse"><stop stop-color="#8EACE7"/><stop offset="1" stop-color="#3532B0"/></linearGradient><linearGradient id="paint3_linear_2208_7012" x1="50.489" y1="-5.318" x2="145.221" y2="70.059" gradientUnits="userSpaceOnUse"><stop stop-color="#E3E3FF"/><stop offset=".126" stop-color="#C3C0FF"/><stop offset=".313" stop-color="#FFC6AE"/><stop offset=".516" stop-color="#EDEDFF"/><stop offset=".687" stop-color="#FFB3D8"/><stop offset=".883" stop-color="#C2BFFF"/><stop offset="1" stop-color="#E3E3FF"/></linearGradient><filter id="filter0_b_2208_7012" x="4.277" y="3.015" width="135.172" height="124.035" filterUnits="userSpaceOnUse" color-interpolation-filters="sRGB"><feFlood flood-opacity="0" result="BackgroundImageFix"/><feGaussianBlur in="BackgroundImageFix" stdDeviation="7.724"/><feComposite in2="SourceAlpha" operator="in" result="effect1_backgroundBlur_2208_7012"/><feBlend in="SourceGraphic" in2="effect1_backgroundBlur_2208_7012" result="shape"/></filter><filter id="filter1_f_2208_7012" x="21.377" y="15.274" width="105.342" height="90.875" filterUnits="userSpaceOnUse" color-interpolation-filters="sRGB"><feFlood flood-opacity="0" result="BackgroundImageFix"/><feBlend in="SourceGraphic" in2="BackgroundImageFix" result="shape"/><feGaussianBlur stdDeviation=".772" result="effect1_foregroundBlur_2208_7012"/></filter></defs></svg>