<svg width="24" height="24" fill="none" xmlns="http://www.w3.org/2000/svg"><path fill-rule="evenodd" clip-rule="evenodd" d="M3.25 10.03c0-2.7 2.37-4.78 5.15-4.78 1.433 0 2.695.672 3.6 1.542.905-.87 2.166-1.542 3.6-1.542 2.78 0 5.15 2.08 5.15 4.78 0 1.85-.789 3.476-1.882 4.851-1.09 1.373-2.518 2.538-3.884 3.485a13.9 13.9 0 01-1.534.941c-.454.231-.975.443-1.45.443s-.996-.212-1.45-.443a13.81 13.81 0 01-1.533-.941c-1.367-.947-2.794-2.112-3.885-3.485C4.039 13.506 3.25 11.88 3.25 10.03zM8.4 6.75c-2.08 0-3.65 1.529-3.65 3.28 0 1.403.596 2.71 1.556 3.918.962 1.21 2.257 2.279 3.565 3.185.495.343.96.634 1.36.837.428.218.676.28.769.28.093 0 .341-.062.77-.28a12.47 12.47 0 001.36-.837c1.307-.906 2.602-1.974 3.564-3.185.96-1.208 1.556-2.515 1.556-3.918 0-1.751-1.57-3.28-3.65-3.28-1.194 0-2.31.713-3.005 1.619a.75.75 0 01-1.19 0c-.696-.906-1.81-1.62-3.005-1.62z" fill="#fff"/></svg>