<svg width="1440" height="855" fill="none" xmlns="http://www.w3.org/2000/svg"><g filter="url(#filter0_f_10_11664)"><path d="M-219.5 646.504c-200.465 28.136-245.556-297.465-402.847-462.903-41.299-43.437-835.873-72.843-997.383-146.465-91.64-41.774-6.49-369.315-35.83-461.072-10.54-13.723-15.57-21.736-15.57-21.736 7.09 3.423 12.12 10.951 15.57 21.736 64.82 84.369 338.35 384.555 936.758 365.257C-23.059-81.114 698.213-429.702 698.213-429.702l206.814 31.768c144.253 220.89 200.413 525.817-760.977 556.82-188.39 6.075-163.084 459.483-363.55 487.618z" fill="#8B4DE7"/></g><g filter="url(#filter1_f_10_11664)"><path d="M1526.5 508.504c-200.47 28.136-245.56-297.465-402.85-462.903-41.3-43.437-835.868-72.843-997.378-146.465-91.642-41.774-6.493-369.315-35.834-461.072-10.543-13.723-15.564-21.736-15.564-21.736 7.085 3.423 12.116 10.951 15.565 21.736 64.82 84.369 338.349 384.555 936.761 365.258 695.74-22.437 1417.01-371.024 1417.01-371.024l206.82 31.768c144.25 220.89 200.41 525.817-760.98 556.82-188.39 6.076-163.08 459.483-363.55 487.618z" fill="#8B4DE7"/></g><defs><filter id="filter0_f_10_11664" x="-1845.57" y="-620.112" width="3006.1" height="1442.77" filterUnits="userSpaceOnUse" color-interpolation-filters="sRGB"><feFlood flood-opacity="0" result="BackgroundImageFix"/><feBlend in="SourceGraphic" in2="BackgroundImageFix" result="shape"/><feGaussianBlur stdDeviation="87.22" result="effect1_foregroundBlur_10_11664"/></filter><filter id="filter1_f_10_11664" x="-99.567" y="-758.112" width="3006.1" height="1442.77" filterUnits="userSpaceOnUse" color-interpolation-filters="sRGB"><feFlood flood-opacity="0" result="BackgroundImageFix"/><feBlend in="SourceGraphic" in2="BackgroundImageFix" result="shape"/><feGaussianBlur stdDeviation="87.22" result="effect1_foregroundBlur_10_11664"/></filter></defs></svg>