<svg width="768" height="1024" fill="none" xmlns="http://www.w3.org/2000/svg"><g filter="url(#filter0_f_2142_38018)"><path d="M1121.74 376.308c-90.45 12.695-110.8-134.221-181.768-208.869-18.635-19.6-377.157-32.868-450.033-66.087-41.35-18.85-2.929-166.64-16.168-208.042-4.757-6.192-7.023-9.808-7.023-9.808 3.197 1.545 5.467 4.941 7.023 9.808C503.019-68.622 626.439 66.827 896.45 58.119c313.93-10.124 639.38-167.411 639.38-167.411l93.31 14.334c65.09 99.669 90.43 237.256-343.36 251.245-85 2.742-73.59 207.325-164.04 220.021z" fill="#8B4DE7"/></g><defs><filter id="filter0_f_2142_38018" x="388.038" y="-195.207" width="1356.4" height="650.997" filterUnits="userSpaceOnUse" color-interpolation-filters="sRGB"><feFlood flood-opacity="0" result="BackgroundImageFix"/><feBlend in="SourceGraphic" in2="BackgroundImageFix" result="shape"/><feGaussianBlur stdDeviation="39.355" result="effect1_foregroundBlur_2142_38018"/></filter></defs></svg>