<svg width="116" height="116" fill="none" xmlns="http://www.w3.org/2000/svg"><path fill="#9465FF" d="M0 0h116v116H0z"/><path d="M101.022 44.758L84.179 61.6l-1.144 1.143-1.143 1.144-1.143 1.143-5.014 5.013c-1.847 1.848-4.31 2.903-6.948 2.991h-.352a11.55 11.55 0 01-2.155-.22 10.001 10.001 0 01-4.53-2.243l-.615-.615c-.264-.264-.528-.528-.748-.836-.088-.132-.176-.22-.264-.352a.957.957 0 01-.22-.352c-.043-.088-.131-.175-.175-.264-.044-.043-.088-.131-.132-.175a.333.333 0 01-.088-.176l-.132-.264c-.044-.044-.044-.088-.088-.176s-.088-.22-.176-.308c-.044-.044-.044-.088-.044-.132l-.132-.264a.624.624 0 01-.088-.264c-.044-.044-.044-.132-.088-.175a.815.815 0 01-.088-.308c0-.044-.044-.088-.044-.132-.044-.088-.044-.22-.088-.308 0-.044-.044-.132-.044-.176-.044-.132-.044-.22-.088-.352-.044-.132-.044-.308-.088-.44 0-.043 0-.088-.044-.132 0-.087-.044-.131-.044-.22v-.219c0-.088-.044-.176-.044-.264v-.264c0-.132 0-.22-.044-.352v-.967c0-.132 0-.22.044-.352a10.062 10.062 0 012.99-6.42l.573-.572c.088-.044.132-.132.22-.176.132-.088.263-.22.395-.308s.264-.176.44-.308c0 0 .044 0 .044-.044l.396-.264c.132-.088.308-.176.44-.264.132-.088.307-.132.44-.22.131-.087.307-.131.44-.175.131-.044.307-.132.439-.176.132-.044.308-.088.44-.132.132-.044.264-.088.396-.088.131-.044.263-.044.351-.088.088 0 .176-.044.264-.044.132-.044.264-.044.44-.088.088 0 .176-.044.264-.044.264-.044.484-.044.747-.044h1.012c.264 0 .484.044.748.044.087 0 .175 0 .263.044.132 0 .264.044.396.044.088 0 .132.044.22.044.132.044.264.044.352.088.176.044.308.088.484.132.131.044.307.088.44.132.175.044.351.132.571.22.132.043.264.131.396.175.132.088.308.132.44.22s.307.176.44.264l.395.264c.044 0 .044.044.088.044l.396.264.791.66c.132.131.264.22.396.351l5.014 5.014-1.144 1.143-5.013-4.837a8.703 8.703 0 00-6.113-2.551h-.484c-.088 0-.22 0-.308.044-.087 0-.22 0-.307.044-.088 0-.176.044-.264.044-.176.044-.396.088-.572.132-.088 0-.132.044-.22.044-.264.088-.528.132-.791.22-.088.044-.176.044-.22.088-.264.088-.484.22-.748.308-.044.043-.132.044-.176.087-.176.088-.395.22-.571.352-.044.044-.132.088-.176.132-.176.132-.352.264-.484.352-.088.044-.176.132-.22.176-.088.088-.176.132-.264.22l-.264.264c-.132.132-.264.264-.395.44-.089.087-.132.175-.22.22-.088.087-.176.22-.264.307-.088.088-.132.176-.22.308-.088.088-.132.22-.22.308 0 0 0 .044-.044.044-.044.088-.088.176-.176.264 0 .044-.044.044-.044.088l-.132.263c-.044.044-.044.088-.044.132-.044.088-.088.22-.132.308-.044.132-.088.22-.132.352v.044c-.044.088-.088.22-.132.308v.044a.815.815 0 00-.088.308c-.044.132-.044.22-.087.352 0 .044-.044.131-.044.22 0 .087-.044.131-.044.22-.044.175-.044.351-.088.527 0 .088-.044.22-.044.308 0 .132 0 .264-.044.396v.791c0 .132 0 .264.044.396v.352a8.4 8.4 0 00.527 2.067c0 .044.044.088.044.132.044.088.044.176.088.22.044.087.088.131.088.22.044.087.088.22.176.307.044.088.088.176.176.264.088.176.22.396.352.572.044.088.132.176.176.22.22.307.527.615.791.923.176.176.352.308.528.484a8.263 8.263 0 004.222 1.935c.44.088.923.088 1.363.088 2.33 0 4.486-.924 6.113-2.55l5.013-5.014 1.144-1.144 1.143-1.143 1.144-1.143L99.79 43.439c3.386-3.387 3.386-8.884 0-12.27a7.86 7.86 0 00-1.364-1.1c-.22-.175-.483-.307-.747-.44-.264-.131-.528-.263-.792-.351-.264-.088-.528-.22-.791-.264a9.255 9.255 0 00-2.463-.352c-.836 0-1.671.132-2.463.352l-.791.264c-.264.088-.528.22-.792.352a6.608 6.608 0 00-.748.44c-.483.307-.923.703-1.363 1.099L67.995 50.651c-.923.044-1.803.132-2.638.352l20.977-20.977a10.213 10.213 0 017.256-2.99c2.727 0 5.321 1.055 7.256 2.99 4.178 4.177 4.178 10.73.176 14.732z" fill="#fff"/><path d="M88.715 82.97a9.898 9.898 0 01-3.386 2.243 10.644 10.644 0 01-3.87.747 10.255 10.255 0 01-7.257-2.99l-8.663-8.664c.88.22 1.76.352 2.639.352l7.168 7.168c.44.44.88.792 1.363 1.1.264.176.484.308.748.44.132.087.264.131.44.22l.263.131c.176.088.308.132.484.176l.396.132c.132.044.308.088.44.132.088.044.22.044.308.088h.088c.131.044.263.044.395.044.088 0 .22.044.308.044s.176 0 .264.044h.704c.22 0 .483 0 .703-.044h.176c.088 0 .22-.044.308-.044.264-.044.484-.088.748-.132.088 0 .175-.044.264-.088h.087c.088-.044.176-.044.308-.088h.044c.044 0 .132-.044.176-.044h.044c.044 0 .088-.044.132-.044.088-.044.176-.044.264-.088.132-.044.22-.088.352-.132.132-.044.264-.132.44-.22.263-.132.483-.264.747-.44.484-.307.924-.703 1.363-1.099a8.659 8.659 0 002.551-6.113c0-2.33-.88-4.485-2.55-6.112l-4.53-4.53 1.143-1.143 4.53 4.53c3.87 3.87 3.87 10.422-.132 14.424zM13.719 44.758L30.562 61.6l1.143 1.143 1.144 1.144 1.143 1.143 5.013 5.013c1.847 1.847 4.31 2.903 6.949 2.99h.352c.747 0 1.45-.087 2.154-.219 1.671-.352 3.21-1.1 4.53-2.243l.616-.615c.264-.264.527-.528.747-.836.088-.132.176-.22.264-.352a.96.96 0 00.22-.352c.044-.088.132-.176.176-.264.044-.044.088-.132.132-.175a.333.333 0 00.088-.176l.132-.264c.044-.044.044-.088.088-.176s.088-.22.175-.308c.044-.044.044-.088.044-.132l.133-.264c.043-.088.087-.176.087-.264.044-.044.044-.132.088-.176a.816.816 0 00.088-.307c0-.044.044-.088.044-.132.044-.088.044-.22.088-.308 0-.044.044-.132.044-.176.044-.132.044-.22.088-.352.044-.132.044-.308.088-.44 0-.044 0-.088.044-.132 0-.088.044-.131.044-.22v-.219c0-.088.044-.176.044-.264v-.264c0-.132 0-.22.044-.352v-.967c0-.132 0-.22-.044-.352a10.062 10.062 0 00-2.99-6.42l-.572-.573c-.088-.044-.132-.132-.22-.175-.132-.088-.264-.22-.396-.308a8.769 8.769 0 01-.44-.308s-.043 0-.043-.044l-.396-.264c-.132-.088-.308-.176-.44-.264-.132-.088-.308-.132-.44-.22s-.308-.132-.44-.176c-.131-.044-.307-.132-.44-.175-.131-.044-.307-.088-.44-.133-.131-.043-.263-.087-.395-.087-.132-.044-.264-.044-.352-.088-.088 0-.176-.044-.264-.044-.131-.044-.264-.044-.44-.088-.087 0-.175-.044-.263-.044-.264-.044-.484-.044-.748-.044h-1.011c-.264 0-.484.044-.748.044-.088 0-.176 0-.264.044-.132 0-.264.044-.396.044-.087 0-.132.044-.22.044-.131.044-.263.044-.351.088-.176.044-.308.088-.484.131-.132.044-.308.088-.44.133-.176.043-.352.131-.572.22-.131.043-.263.131-.395.175-.132.088-.308.132-.44.22s-.308.176-.44.264l-.396.264c-.044 0-.044.044-.087.044l-.396.264-.792.66c-.132.131-.264.22-.396.351l-5.013 5.014 1.143 1.143 5.014-5.013a8.703 8.703 0 016.112-2.551h.484c.088 0 .22 0 .308.044.088 0 .22 0 .308.044.088 0 .176.044.264.044.176.044.395.088.572.132.087 0 .131.044.22.044.263.088.527.132.79.22.089.044.177.044.22.088.265.088.484.22.748.307.044.044.132.044.176.088.176.088.396.22.572.352.044.044.132.088.176.132.176.132.352.264.484.352.088.044.176.132.22.176.088.088.175.132.263.22l.264.264c.132.131.264.264.396.44.088.087.132.175.22.22.088.087.176.22.264.307.088.088.132.176.22.308.088.088.132.22.22.308 0 0 0 .044.044.044a.918.918 0 00.175.264c0 .044.044.044.044.088l.132.263c.044.044.044.088.044.132.044.088.088.22.132.308.044.132.088.22.132.352v.044c.044.088.088.22.132.308v.044c.044.088.088.22.088.308.044.132.044.22.088.351 0 .044.044.132.044.22s.044.132.044.22c.044.176.044.352.088.528 0 .088.044.22.044.308 0 .132 0 .264.044.396v.791c0 .132 0 .264-.044.396v.352a8.396 8.396 0 01-.528 2.067c0 .044-.044.088-.044.132-.044.087-.044.175-.088.22-.044.087-.088.131-.088.22-.044.087-.088.22-.176.307-.044.088-.087.176-.175.264-.088.176-.22.396-.352.572a.961.961 0 01-.176.22c-.22.308-.528.615-.792.923-.176.176-.352.308-.528.484a8.263 8.263 0 01-4.221 1.935c-.44.088-.924.088-1.364.088-2.33 0-4.485-.924-6.112-2.55l-5.014-5.014-1.143-1.144-1.143-1.143-1.144-1.143L14.95 43.263c-3.386-3.387-3.386-8.884 0-12.27.44-.44.88-.792 1.363-1.1.22-.175.484-.307.748-.44.264-.131.528-.263.791-.351.264-.088.528-.22.792-.264a9.255 9.255 0 012.463-.352c.835 0 1.67.132 2.462.352l.792.264c.264.088.528.22.792.352.263.132.483.264.747.44.484.307.924.703 1.364 1.099l19.481 19.482c.924.044 1.803.132 2.639.352L28.274 30.2a10.213 10.213 0 00-7.255-2.99 10.213 10.213 0 00-7.256 2.99c-4.046 4.002-4.046 10.555-.044 14.557z" fill="#fff"/><path d="M26.029 82.97a9.896 9.896 0 003.386 2.243c1.231.483 2.55.747 3.87.747 2.639 0 5.277-1.011 7.256-2.99l8.664-8.664c-.88.22-1.76.352-2.639.352l-7.168 7.168c-.44.44-.88.792-1.364 1.1a6.607 6.607 0 01-.747.44c-.132.087-.264.131-.44.22l-.264.131a2.142 2.142 0 01-.483.176l-.396.132c-.132.044-.308.088-.44.132-.088.044-.22.044-.308.088h-.088c-.132.044-.264.044-.396.044-.088 0-.22.044-.308.044-.087 0-.175 0-.263.044h-.704c-.22 0-.484 0-.704-.044h-.175c-.088 0-.22-.044-.308-.044-.264-.044-.484-.088-.748-.132-.088 0-.176-.044-.264-.088h-.088c-.088-.044-.176-.044-.308-.088h-.044c-.044 0-.132-.044-.175-.044h-.044c-.044 0-.088-.044-.132-.044-.088-.044-.176-.044-.264-.088-.132-.044-.22-.088-.352-.132-.132-.044-.264-.132-.44-.22a6.641 6.641 0 01-.747-.44c-.484-.307-.924-.703-1.364-1.099a8.659 8.659 0 01-2.55-6.113c0-2.33.88-4.485 2.55-6.112l4.53-4.53-1.143-1.143-4.398 4.397c-4.002 4.002-4.002 10.555 0 14.557z" fill="#fff"/></svg>