<svg width="133" height="34" fill="none" xmlns="http://www.w3.org/2000/svg"><path d="M52.74 10.47l-9.49 9.489-.644.644-.645.644-.644.644-2.824 2.825a5.775 5.775 0 01-3.915 1.685h-.198a6.5 6.5 0 01-1.214-.124 5.635 5.635 0 01-2.552-1.264l-.347-.347a3.766 3.766 0 01-.421-.47c-.05-.075-.1-.124-.149-.199a.54.54 0 01-.124-.198c-.025-.05-.074-.099-.099-.148-.025-.025-.05-.075-.074-.1a.188.188 0 01-.05-.099l-.074-.148c-.025-.025-.025-.05-.05-.1-.025-.049-.05-.123-.099-.173-.025-.025-.025-.05-.025-.074l-.074-.149a.351.351 0 01-.05-.149c-.024-.024-.024-.074-.05-.099a.46.46 0 01-.049-.173c0-.025-.024-.05-.024-.074-.025-.05-.025-.124-.05-.174 0-.025-.025-.074-.025-.099-.024-.074-.024-.124-.05-.198-.024-.075-.024-.174-.049-.248 0-.025 0-.05-.025-.074 0-.05-.024-.075-.024-.124v-.124c0-.05-.025-.1-.025-.149v-.147c0-.075 0-.124-.025-.199v-.545c0-.074 0-.123.025-.198a5.67 5.67 0 011.685-3.617l.322-.322c.05-.025.074-.075.124-.1.074-.049.148-.123.223-.173.074-.05.148-.099.247-.173 0 0 .025 0 .025-.025l.223-.149c.074-.05.174-.099.248-.148.074-.05.173-.075.248-.124.074-.05.173-.075.247-.1.075-.024.174-.074.248-.098.075-.025.174-.05.248-.075a.718.718 0 01.223-.05c.074-.024.149-.024.198-.049.05 0 .1-.025.149-.025.074-.024.148-.024.248-.05.05 0 .099-.024.148-.024.149-.025.273-.025.421-.025h.571c.148 0 .272.025.42.025.05 0 .1 0 .15.025.074 0 .148.024.222.024.05 0 .075.025.124.025.074.025.149.025.198.05.1.025.174.05.273.074.074.025.173.05.248.075.099.024.198.074.322.123.074.025.148.075.223.1.074.049.173.074.247.123.075.05.174.1.248.149l.223.149c.025 0 .025.024.05.024l.223.15.446.37c.074.075.148.125.223.199l2.824 2.825-.644.644-2.825-2.726a4.903 4.903 0 00-3.444-1.437h-.272c-.05 0-.124 0-.173.025-.05 0-.124 0-.174.025-.05 0-.099.025-.148.025-.1.024-.224.05-.323.074-.05 0-.074.025-.123.025-.15.05-.298.074-.447.123-.05.025-.099.025-.123.05-.149.05-.273.124-.422.174-.024.024-.074.024-.099.05a2.23 2.23 0 00-.322.197c-.025.025-.074.05-.099.075a6.78 6.78 0 01-.272.198.516.516 0 00-.124.099c-.05.05-.1.074-.149.124l-.149.149a2.214 2.214 0 00-.223.247c-.05.05-.074.1-.123.124-.05.05-.1.124-.15.174-.049.05-.073.099-.123.173-.05.05-.074.124-.124.173 0 0 0 .025-.025.025a.52.52 0 01-.099.149c0 .025-.025.025-.025.05l-.074.148c-.025.025-.025.05-.025.074-.024.05-.05.124-.074.174-.025.074-.05.124-.074.198v.025c-.025.05-.05.124-.075.173v.025a.458.458 0 00-.05.173c-.024.075-.024.124-.049.199 0 .024-.025.074-.025.124s-.024.074-.024.123c-.025.1-.025.199-.05.298 0 .05-.025.124-.025.173 0 .075 0 .149-.024.223v.446c0 .075 0 .149.024.223v.198c.05.397.149.793.298 1.165 0 .025.024.05.024.074.025.05.025.1.05.124.025.05.05.075.05.124.024.05.05.124.099.173.024.05.05.1.099.15.05.098.124.222.198.321.025.05.074.1.1.124.123.174.296.347.445.52.1.1.198.174.297.273a4.655 4.655 0 002.379 1.09c.248.05.52.05.768.05 1.313 0 2.527-.52 3.444-1.437l2.825-2.825.644-.644.644-.644.644-.645 9.49-9.489a4.89 4.89 0 000-6.913 4.432 4.432 0 00-.769-.619 2.352 2.352 0 00-.42-.248c-.15-.074-.298-.148-.447-.198-.148-.05-.297-.124-.446-.149a5.214 5.214 0 00-1.387-.198c-.471 0-.942.074-1.388.198l-.446.149c-.148.05-.297.124-.446.198a3.73 3.73 0 00-.42.248c-.273.173-.521.396-.769.62L34.132 13.788c-.52.025-1.016.075-1.487.199L44.464 2.169A5.754 5.754 0 0148.552.484c1.536 0 2.998.595 4.088 1.685 2.354 2.354 2.354 6.046.1 8.3z" fill="#fff"/><path d="M45.803 31.999c-.57.57-1.214.991-1.907 1.264a5.986 5.986 0 01-2.18.42A5.777 5.777 0 0137.626 32l-4.88-4.881c.495.124.99.198 1.486.198l4.038 4.039c.248.248.496.446.768.62.149.098.273.173.422.247.074.05.148.074.247.124l.149.074c.1.05.173.075.273.1l.222.074c.075.024.174.05.248.074.05.025.124.025.174.05h.05a.701.701 0 00.222.024c.05 0 .124.025.174.025.05 0 .099 0 .148.025h.397c.124 0 .272 0 .396-.025h.1c.049 0 .123-.025.173-.025.148-.024.272-.05.421-.074.05 0 .1-.025.149-.05h.05c.049-.024.098-.024.173-.05h.024c.025 0 .075-.024.1-.024h.024c.025 0 .05-.025.075-.025.05-.024.099-.024.148-.05.075-.024.124-.049.199-.074.074-.024.148-.074.247-.123.149-.075.273-.15.421-.248.273-.174.52-.397.768-.62a4.879 4.879 0 001.438-3.444c0-1.313-.496-2.527-1.438-3.444l-2.551-2.551.644-.645 2.552 2.552c2.18 2.18 2.18 5.872-.075 8.127zM3.555 10.466l9.49 9.49.644.644.644.644.644.644 2.825 2.824a5.775 5.775 0 003.914 1.685h.199a6.5 6.5 0 001.214-.124 5.635 5.635 0 002.552-1.263l.346-.347c.15-.149.298-.297.422-.47.05-.075.099-.125.148-.199a.54.54 0 00.124-.198c.025-.05.075-.1.1-.149.024-.025.049-.074.074-.099a.188.188 0 00.05-.1l.074-.148c.024-.024.024-.05.05-.099.024-.05.049-.124.098-.173.025-.025.025-.05.025-.075l.074-.148c.025-.05.05-.1.05-.149.025-.025.025-.074.05-.1a.458.458 0 00.049-.172c0-.025.025-.05.025-.075.024-.05.024-.124.05-.173 0-.025.024-.075.024-.1.025-.074.025-.123.05-.198.024-.074.024-.173.05-.247 0-.025 0-.05.024-.075 0-.05.025-.074.025-.124v-.123c0-.05.024-.1.024-.15v-.148c0-.074 0-.124.025-.198v-.545c0-.074 0-.124-.024-.198a5.669 5.669 0 00-1.685-3.618l-.322-.322c-.05-.024-.075-.074-.124-.099-.075-.05-.149-.124-.223-.173-.075-.05-.149-.1-.248-.174 0 0-.025 0-.025-.024l-.223-.15c-.074-.049-.173-.098-.248-.148-.074-.05-.173-.074-.247-.124-.075-.05-.174-.074-.248-.099-.074-.025-.173-.074-.248-.099-.074-.025-.173-.05-.248-.074-.074-.025-.148-.05-.223-.05-.074-.025-.148-.025-.198-.05-.05 0-.099-.024-.149-.024-.074-.025-.148-.025-.247-.05-.05 0-.1-.025-.149-.025-.149-.024-.272-.024-.421-.024h-.57c-.149 0-.273.024-.421.024-.05 0-.1 0-.149.025-.074 0-.148.025-.223.025-.05 0-.074.025-.124.025-.074.025-.148.025-.198.05-.099.024-.173.049-.273.074-.074.024-.173.05-.247.074-.1.025-.198.074-.322.124-.075.025-.149.074-.223.1-.075.049-.174.073-.248.123-.074.05-.173.099-.248.149l-.223.148c-.025 0-.025.025-.05.025l-.222.149-.446.371c-.075.075-.149.124-.223.199l-2.825 2.824.644.644 2.825-2.824a4.903 4.903 0 013.444-1.437h.272c.05 0 .124 0 .174.024.05 0 .124 0 .173.025.05 0 .1.025.149.025.099.025.223.05.322.074.05 0 .074.025.124.025.149.05.297.074.446.124.05.025.099.025.124.05.148.05.272.123.42.173.026.025.075.025.1.05.1.05.223.123.322.198.025.025.074.05.1.074.098.074.197.149.272.198.05.025.099.075.124.1.05.049.099.074.148.123l.149.149c.074.074.149.149.223.248.05.05.074.099.124.124.05.05.099.123.149.173.05.05.074.1.123.174.05.049.075.123.124.173 0 0 0 .025.025.025.025.05.05.099.1.148 0 .025.024.025.024.05l.074.149c.025.024.025.05.025.074.025.05.05.124.074.173.025.075.05.124.075.199v.024c.024.05.05.124.074.174v.024a.46.46 0 01.05.174c.024.074.024.124.05.198 0 .025.024.075.024.124 0 .05.025.074.025.124.024.1.024.198.05.297 0 .05.024.124.024.174 0 .074 0 .148.025.223v.446c0 .074 0 .148-.025.223v.198a4.73 4.73 0 01-.297 1.164c0 .025-.025.05-.025.075-.025.05-.025.099-.05.124-.024.05-.05.074-.05.123-.024.05-.049.124-.098.174a.52.52 0 01-.1.149 2.153 2.153 0 01-.198.322.542.542 0 01-.099.124c-.124.173-.297.346-.446.52-.099.099-.198.173-.297.272a4.655 4.655 0 01-2.379 1.09c-.247.05-.52.05-.768.05a4.835 4.835 0 01-3.444-1.437l-2.824-2.824-.644-.645-.644-.644-.645-.644-9.49-9.49a4.89 4.89 0 010-6.912c.249-.248.496-.446.769-.62.124-.099.272-.173.421-.247a3.51 3.51 0 01.446-.199c.149-.05.297-.123.446-.148a5.215 5.215 0 011.388-.198c.47 0 .941.074 1.387.198l.446.148c.149.05.297.124.446.199.149.074.273.148.421.247.273.174.52.397.768.62l10.976 10.976c.52.025 1.016.074 1.487.198L11.756 2.265A5.754 5.754 0 007.668.58 5.754 5.754 0 003.58 2.265a5.795 5.795 0 00-.025 8.2z" fill="#fff"/><path d="M10.492 31.995c.57.57 1.214.991 1.908 1.264a5.985 5.985 0 002.18.42 5.775 5.775 0 004.088-1.684l4.881-4.88a6.128 6.128 0 01-1.486.197l-4.04 4.039a4.438 4.438 0 01-.767.62 3.935 3.935 0 01-.421.247c-.075.05-.15.074-.248.124l-.149.074c-.099.05-.173.075-.272.1l-.223.074c-.075.024-.174.05-.248.074-.05.025-.124.025-.174.05h-.05c-.073.024-.148.024-.222.024-.05 0-.124.025-.174.025-.05 0-.099 0-.148.025h-.397c-.123 0-.272 0-.396-.025h-.1c-.049 0-.123-.025-.173-.025-.148-.024-.272-.05-.42-.074-.05 0-.1-.025-.15-.05h-.049c-.05-.024-.1-.024-.173-.049h-.025c-.025 0-.075-.025-.1-.025h-.024c-.025 0-.05-.025-.074-.025-.05-.024-.1-.024-.15-.05-.073-.024-.123-.049-.197-.074-.075-.024-.149-.074-.248-.123a3.75 3.75 0 01-.421-.248c-.273-.174-.52-.397-.768-.62a4.879 4.879 0 01-1.437-3.444c0-1.313.495-2.527 1.437-3.443l2.552-2.552-.645-.645-2.477 2.478c-2.255 2.255-2.255 5.946 0 8.201zM79.346 9.227v1.04H67.478l.942-.941v15.683h-1.19V9.227h12.116zM67.8 16.61h11.224v1.04H67.8v-1.04zm15.54-7.383v15.262l-.52-.52h11.992v1.04H82.176V9.227h1.164zm8.566 0h1.412l7.235 8.894h-1.065l7.185-8.894h1.412l-7.705 9.514h-.719l-7.755-9.514zm7.532 15.807v-7.408h1.19v7.383h-1.19v.025zm11.25-.004V9.249h1.189v14.618l-.521-.124 12.24-14.494h1.388l-13.281 15.783h-1.015zm7.507-8.374l.694-1.164 6.342 9.514h-1.387l-5.649-8.35zm9.262-7.429h1.189v15.782h-1.189V9.227z" fill="#fff"/></svg>