<svg width="32" height="33" fill="none" xmlns="http://www.w3.org/2000/svg"><rect y=".5" width="32" height="32" rx="16" fill="#2B3138"/><path d="M21.43 11.818l-4.645-2.503a1.641 1.641 0 00-1.57 0l-4.644 2.503a1.06 1.06 0 00-.548.949c0 .4.207.763.548.948l4.644 2.503a1.65 1.65 0 001.57 0l4.645-2.503c.34-.185.548-.541.548-.948a1.06 1.06 0 00-.548-.949z" fill="#fff"/><path opacity=".4" d="M14.452 17.085l-4.326-2.163a1.06 1.06 0 00-1.533.948v4.082c0 .704.392 1.34 1.022 1.66l4.319 2.162a1.062 1.062 0 001.03-.044c.318-.193.503-.534.503-.904v-4.082a1.817 1.817 0 00-1.015-1.659zm8.452-2.118a1.044 1.044 0 00-1.03-.045l-4.318 2.163a1.845 1.845 0 00-1.022 1.66v4.08c0 .371.185.712.503.905a1.068 1.068 0 001.03.044l4.319-2.163a1.845 1.845 0 001.022-1.66v-4.08c0-.371-.185-.704-.504-.904z" fill="#fff"/></svg>