<svg width="768" height="922" fill="none" xmlns="http://www.w3.org/2000/svg"><g filter="url(#filter0_f_2_11684)"><path d="M-209.73 463.683c343.995-79.67 546.438-253.211 766.391-388.994 0 0-526.061 361.225-304.598 448.934 221.463 87.71 1166.827-14.432 1166.827-14.432C945.438 580.434 300.041 700.793-356.734 634.518c-392.642-39.621-1463.446 82.676-1512.436 53.585-34.6-20.54 1279.455-136.415 1659.44-224.42z" fill="#C59CFF"/></g><g filter="url(#filter1_f_2_11684)"><path d="M1731.14 362.723C2224.91 248.365 2515.5-.738 2831.22-195.642c0 0-755.11 518.505-437.22 644.404s1674.87-20.716 1674.87-20.716c-679.59 102.263-1606 275.026-2548.74 179.895-563.601-56.873-2100.635 118.674-2170.969 76.917C-700.5 655.374 1185.71 489.046 1731.14 362.723z" fill="#C59CFF"/></g><defs><filter id="filter0_f_2_11684" x="-1974.35" y="-29.811" width="3497.73" height="826.937" filterUnits="userSpaceOnUse" color-interpolation-filters="sRGB"><feFlood flood-opacity="0" result="BackgroundImageFix"/><feBlend in="SourceGraphic" in2="BackgroundImageFix" result="shape"/><feGaussianBlur stdDeviation="52.25" result="effect1_foregroundBlur_2_11684"/></filter><filter id="filter1_f_2_11684" x="-801.801" y="-345.642" width="5020.67" height="1186.99" filterUnits="userSpaceOnUse" color-interpolation-filters="sRGB"><feFlood flood-opacity="0" result="BackgroundImageFix"/><feBlend in="SourceGraphic" in2="BackgroundImageFix" result="shape"/><feGaussianBlur stdDeviation="75" result="effect1_foregroundBlur_2_11684"/></filter></defs></svg>