<svg width="1440" height="1300" fill="none" xmlns="http://www.w3.org/2000/svg"><g filter="url(#filter0_f_2_11683)"><path d="M-421.862 740.883C71.911 626.525 362.5 377.422 678.222 182.519c0 0-755.112 518.504-437.223 644.403 317.89 125.899 1674.871-20.716 1674.871-20.716-679.6 102.263-1606.002 275.024-2548.742 179.895-563.598-56.873-2100.638 118.679-2170.968 76.919-49.66-29.49 1836.545-195.814 2381.978-322.137z" fill="#C59CFF"/></g><g filter="url(#filter1_f_2_11683)"><path d="M1731.14 708.883c493.77-114.358 784.36-363.461 1100.08-558.364 0 0-755.11 518.504-437.22 644.403s1674.87-20.716 1674.87-20.716c-679.59 102.263-1606 275.024-2548.74 179.895-563.602-56.873-2100.636 118.679-2170.969 76.919-49.661-29.49 1836.549-195.814 2381.979-322.137z" fill="#C59CFF"/></g><defs><filter id="filter0_f_2_11683" x="-2954.8" y="32.519" width="5020.67" height="1186.99" filterUnits="userSpaceOnUse" color-interpolation-filters="sRGB"><feFlood flood-opacity="0" result="BackgroundImageFix"/><feBlend in="SourceGraphic" in2="BackgroundImageFix" result="shape"/><feGaussianBlur stdDeviation="75" result="effect1_foregroundBlur_2_11683"/></filter><filter id="filter1_f_2_11683" x="-801.802" y=".519" width="5020.67" height="1186.99" filterUnits="userSpaceOnUse" color-interpolation-filters="sRGB"><feFlood flood-opacity="0" result="BackgroundImageFix"/><feBlend in="SourceGraphic" in2="BackgroundImageFix" result="shape"/><feGaussianBlur stdDeviation="75" result="effect1_foregroundBlur_2_11683"/></filter></defs></svg>