<svg width="375" height="766" fill="none" xmlns="http://www.w3.org/2000/svg"><g filter="url(#filter0_f_2_11685)"><path d="M-223.865 319.208c260.962-60.439 414.539-192.092 581.4-295.1 0 0-399.08 274.033-231.074 340.572 168.006 66.538 885.179-10.949 885.179-10.949-359.171 54.047-848.782 145.353-1347.025 95.076-297.866-30.058-1110.195 62.719-1147.365 40.651-26.25-15.583 970.621-103.488 1258.885-170.25z" fill="#C59CFF"/></g><g filter="url(#filter1_f_2_11685)"><path d="M1731.14 241.961C2224.91 127.603 2515.5-121.5 2831.22-316.403c0 0-755.11 518.504-437.22 644.403s1674.87-20.716 1674.87-20.716c-679.6 102.263-1606 275.026-2548.74 179.895-563.602-56.872-2100.636 118.674-2170.97 76.917-49.661-29.484 1836.55-195.812 2381.98-322.135z" fill="#C59CFF"/></g><defs><filter id="filter0_f_2_11685" x="-1562.54" y="-55.167" width="2653.45" height="627.331" filterUnits="userSpaceOnUse" color-interpolation-filters="sRGB"><feFlood flood-opacity="0" result="BackgroundImageFix"/><feBlend in="SourceGraphic" in2="BackgroundImageFix" result="shape"/><feGaussianBlur stdDeviation="39.638" result="effect1_foregroundBlur_2_11685"/></filter><filter id="filter1_f_2_11685" x="-801.802" y="-466.403" width="5020.67" height="1186.99" filterUnits="userSpaceOnUse" color-interpolation-filters="sRGB"><feFlood flood-opacity="0" result="BackgroundImageFix"/><feBlend in="SourceGraphic" in2="BackgroundImageFix" result="shape"/><feGaussianBlur stdDeviation="75" result="effect1_foregroundBlur_2_11685"/></filter></defs></svg>