<svg width="28" height="29" fill="none" xmlns="http://www.w3.org/2000/svg"><g clip-path="url(#clip0_2208_7085)" fill-rule="evenodd" clip-rule="evenodd"><path d="M13.973.473a14.027 14.027 0 110 28.054 14.027 14.027 0 010-28.054z" fill="#08C"/><path d="M9.608 9.445h8.788c.336 0 .616.056.952.224.392.168.616.448.728.672 0 0 0 .056.056.056.167.28.28.616.28 1.008 0 .335-.056.671-.28 1.007l-5.542 9.516c-.112.224-.336.336-.616.336-.224 0-.448-.112-.616-.336l-5.43-9.516c-.111-.224-.335-.504-.335-.952-.056-.391.056-.727.224-1.063.168-.336.447-.616.84-.728.335-.224.727-.224.95-.224zm3.694 1.344H9.608c-.224 0-.336 0-.392.056a.437.437 0 00-.224.224c-.056.056-.056.168-.056.28 0 .056.056.111.168.335l4.198 7.277V10.79zm1.344 0v8.228l4.254-7.333a.71.71 0 00.056-.335c0-.112 0-.224-.056-.28-.056-.056-.056-.112-.112-.112l-.056-.056c-.112-.056-.224-.056-.392-.056h-3.694v-.056z" fill="#fff"/></g><defs><clipPath id="clip0_2208_7085"><rect y=".5" width="28" height="28" rx="14" fill="#fff"/></clipPath></defs></svg>