<svg width="32" height="32" fill="none" xmlns="http://www.w3.org/2000/svg"><path d="M0 8a8 8 0 018-8h16a8 8 0 018 8v16a8 8 0 01-8 8H8a8 8 0 01-8-8V8z" fill="#08C"/><path fill-rule="evenodd" clip-rule="evenodd" d="M10.727 8.295h10.565c.404 0 .74.067 1.144.27.471.201.74.537.875.807 0 0 0 .067.067.067.202.336.337.74.337 1.211 0 .404-.067.808-.337 1.211l-6.662 11.44c-.134.27-.404.404-.74.404-.27 0-.538-.134-.74-.404l-6.528-11.44c-.134-.269-.403-.605-.403-1.144-.068-.47.067-.874.269-1.278s.538-.74 1.01-.875c.403-.27.874-.27 1.143-.27zm4.441 1.615h-4.44c-.27 0-.405 0-.472.067a.525.525 0 00-.269.27c-.067.067-.067.201-.067.336 0 .067.067.134.201.404l5.047 8.748V9.91zm1.616 0v9.892l5.114-8.815c.067-.135.067-.27.067-.404 0-.135 0-.27-.067-.337s-.067-.134-.135-.134l-.067-.068c-.135-.067-.27-.067-.471-.067h-4.441V9.91z" fill="#fff"/></svg>